<?xml version="1.0" encoding="iso-8859-1"?>
<!-- Generator: Adobe Illustrator 21.1.0, SVG Export Plug-In . SVG Version: 6.00 Build 0)  -->
<svg version="1.1" id="_x31_6_x5F_Packaging-layer" xmlns="http://www.w3.org/2000/svg" xmlns:xlink="http://www.w3.org/1999/xlink"
	 x="0px" y="0px" viewBox="0 0 16 16" style="enable-background:new 0 0 16 16;" xml:space="preserve">
<g id="_x31_6_x5F_Packaging">
	<rect transform="matrix(-1.836970e-16 1 -1 -1.836970e-16 16 1.776357e-15)" style="fill:none;" width="16" height="16"/>
	<g>
		<path d="M11.696,4c0.507-0.908,0.21-2.063-0.688-2.602C10.095,0.849,8.903,1.145,8.352,2.06L7.499,3.48L6.648,2.063
			C6.097,1.148,4.906,0.853,3.992,1.401C3.095,1.939,2.797,3.093,3.303,4H0v11h15V4H11.696z M9.21,2.575
			c0.266-0.442,0.841-0.586,1.284-0.32c0.442,0.266,0.585,0.841,0.32,1.283c-0.17,0.283-0.468,0.452-0.796,0.454H8.359L9.21,2.575z
			 M4.081,2.833c0.061-0.242,0.212-0.447,0.426-0.576C4.95,1.992,5.525,2.137,5.79,2.578l0.851,1.418H4.985
			c-0.33-0.001-0.628-0.171-0.798-0.454C4.058,3.328,4.02,3.076,4.081,2.833z M1,5h6v4H1V5z M1,14v-4h6v4H1z M14,14H8v-4h6V14z M8,9
			V5h6v4H8z"/>
	</g>
</g>
</svg>
